<?xml version="1.0" standalone="no"?>
<!DOCTYPE svg PUBLIC "-//W3C//DTD SVG 20010904//EN"
 "http://www.w3.org/TR/2001/REC-SVG-20010904/DTD/svg10.dtd">
<svg version="1.0" xmlns="http://www.w3.org/2000/svg"
 width="468.000000pt" height="472.000000pt" viewBox="0 0 468.000000 472.000000"
 preserveAspectRatio="xMidYMid meet">

<g transform="translate(0.000000,472.000000) scale(0.100000,-0.100000)"
fill="#000000" stroke="none">
<path d="M3434 3471 c-66 -40 -71 -132 -9 -188 98 -91 247 20 189 142 -30 63
-116 85 -180 46z"/>
<path d="M1310 3126 c-81 -14 -86 -17 -94 -63 -4 -21 -12 -55 -17 -75 l-10
-38 -60 0 c-52 0 -61 -3 -69 -22 -14 -35 -31 -129 -24 -139 3 -5 30 -9 60 -9
41 0 54 -4 54 -15 0 -8 -18 -101 -40 -207 -54 -262 -52 -339 14 -408 50 -54
81 -65 186 -64 78 0 104 4 143 22 53 25 56 38 36 132 -12 57 -5 54 -89 32 -52
-13 -95 2 -110 38 -15 36 -11 68 36 278 19 85 34 163 34 173 0 18 10 19 124
19 l124 0 16 65 c28 111 34 105 -99 105 -131 0 -125 -6 -100 95 21 90 20 95
-17 94 -18 -1 -62 -7 -98 -13z"/>
<path d="M3437 3126 c-37 -7 -69 -15 -71 -17 -3 -3 -13 -38 -23 -79 l-18 -75
-65 -5 -65 -5 -12 -50 c-6 -27 -12 -65 -12 -82 l-1 -33 53 0 c30 0 56 -2 59
-5 3 -3 -14 -99 -38 -213 -24 -114 -44 -227 -44 -252 0 -96 37 -162 114 -203
63 -33 202 -31 271 3 49 24 50 26 47 65 -2 22 -8 57 -13 78 -9 34 -13 38 -32
32 -12 -4 -46 -9 -75 -12 -60 -6 -86 9 -95 55 -5 25 23 200 43 267 5 17 16 65
25 107 l17 77 121 3 121 3 13 60 c23 112 30 105 -102 105 -63 0 -115 3 -115 8
0 4 7 34 15 67 8 33 14 72 15 88 0 24 -3 27 -32 26 -18 -1 -63 -7 -101 -13z"/>
<path d="M2152 2943 c-23 -8 -62 -35 -86 -59 -56 -56 -67 -56 -55 -2 15 65 11
68 -91 68 -84 0 -91 -2 -100 -22 -5 -13 -34 -144 -65 -293 -31 -148 -67 -320
-80 -382 -31 -139 -31 -151 -2 -158 45 -12 169 -1 178 15 4 8 31 125 59 260
60 285 84 344 157 387 57 33 131 36 171 6 44 -32 41 -82 -23 -387 -46 -217
-54 -270 -43 -277 15 -10 142 -12 174 -3 18 5 24 20 38 92 47 243 99 450 122
489 39 68 85 96 160 101 77 5 110 -12 119 -61 4 -22 -11 -117 -45 -283 -29
-137 -54 -268 -57 -291 -5 -39 -4 -42 21 -49 28 -7 162 -2 170 7 3 2 16 56 30
119 13 63 39 180 56 260 37 169 49 313 30 362 -19 48 -65 93 -110 108 -24 8
-69 11 -123 8 -97 -5 -152 -31 -210 -98 -18 -22 -38 -40 -43 -40 -5 0 -20 21
-34 47 -37 69 -89 93 -194 92 -45 0 -100 -7 -124 -16z"/>
<path d="M2954 2040 c-62 -25 -84 -114 -40 -161 25 -28 42 -33 235 -75 73 -17
125 -33 128 -41 3 -8 -2 -53 -12 -101 -9 -48 -23 -118 -30 -157 -19 -94 -18
-156 1 -183 13 -19 24 -22 79 -22 94 0 88 -14 170 414 30 156 30 166 4 199
-23 30 -32 33 -299 93 -210 48 -205 47 -236 34z"/>
<path d="M1280 1897 c-45 -16 -74 -65 -66 -112 8 -42 127 -171 224 -245 135
-101 381 -203 557 -230 55 -8 163 -11 340 -8 245 4 266 6 358 32 165 45 312
112 427 194 93 67 110 87 110 136 0 52 -20 81 -66 96 -47 16 -68 9 -139 -45
-125 -94 -300 -167 -480 -201 -147 -28 -394 -26 -537 4 -224 47 -405 140 -551
285 -54 53 -102 97 -107 97 -5 0 -14 2 -22 4 -7 3 -29 0 -48 -7z"/>
<path d="M2338 233 c6 -2 18 -2 25 0 6 3 1 5 -13 5 -14 0 -19 -2 -12 -5z"/>
</g>
</svg>
